<svg width="187" height="40" viewBox="0 0 187 40" fill="none" alt="DonorSearch логотип" xmlns="http://www.w3.org/2000/svg">
<g clip-path="url(#clip0_111_64)">
<mask id="mask0_111_64" style="mask-type:luminance" maskUnits="userSpaceOnUse" x="0" y="0" width="187" height="40">
<path d="M186.25 0H0V40H186.25V0Z" fill="white"/>
</mask>
<g mask="url(#mask0_111_64)">
<path d="M23.1831 16.341C23.1831 7.31804 30.4835 0 39.4846 0C48.4857 0 55.786 7.31804 55.786 16.341C55.786 27.2787 46.3924 31.4491 40.0864 39.6065C39.9032 39.8426 39.7463 39.9738 39.4846 39.9738C39.2229 39.9738 39.0659 39.8164 38.8827 39.6065C32.5767 31.423 23.1831 27.2787 23.1831 16.341ZM20.6974 16.341C20.6974 13.1935 21.4824 10.2295 22.843 7.60656C23.0261 7.26557 22.9476 6.81967 22.6597 6.55737C20.6711 4.66885 18.6825 2.67541 16.9032 0.393443C16.7201 0.157378 16.5631 0.0262301 16.3015 0.0262301C16.0397 0.0262301 15.8827 0.183606 15.6996 0.393443C9.41978 8.57705 0 12.7213 0 23.659C0 32.682 7.30032 40 16.3015 40C21.4039 40 25.9305 37.6656 28.9135 33.9935C29.2014 33.6525 29.1751 33.1279 28.835 32.8131C24.5699 28.5378 20.6974 23.8426 20.6974 16.341ZM64.6825 13.9541H70.5436C71.9566 13.9541 73.2387 14.2426 74.3378 14.7935C75.4368 15.3442 76.3002 16.1311 76.9282 17.1541C77.5561 18.177 77.844 19.3311 77.844 20.6689C77.844 22.0065 77.53 23.1606 76.9282 24.1836C76.3264 25.2065 75.4629 25.9935 74.3378 26.5442C73.2387 27.0951 71.9566 27.3836 70.5436 27.3836H64.7086V13.9541H64.6825ZM70.4129 25.259C71.381 25.259 72.2445 25.0754 73.0033 24.682C73.736 24.3147 74.3116 23.7639 74.7302 23.082C75.1227 22.3737 75.3321 21.5869 75.3321 20.6689C75.3321 19.7509 75.1227 18.9377 74.7302 18.2558C74.3377 17.5475 73.7621 17.023 73.0033 16.6558C72.2445 16.2885 71.4071 16.0788 70.4129 16.0788H67.1683V25.259H70.4129ZM81.7428 26.8065C80.9054 26.3606 80.2775 25.7311 79.8065 24.9443C79.3355 24.1574 79.1 23.2394 79.1 22.2426C79.1 21.2459 79.3355 20.3279 79.8065 19.541C80.2775 18.7541 80.9054 18.1246 81.7428 17.6786C82.5801 17.2327 83.4959 16.9967 84.5425 16.9967C85.5891 16.9967 86.5311 17.2327 87.3423 17.6786C88.1796 18.1246 88.8076 18.7541 89.2786 19.541C89.7496 20.3279 89.985 21.2196 89.985 22.2426C89.985 23.2394 89.7496 24.1574 89.2786 24.9443C88.8076 25.7311 88.1796 26.3606 87.3423 26.8065C86.505 27.2525 85.5891 27.4885 84.5425 27.4885C83.4959 27.4885 82.5801 27.2525 81.7428 26.8065ZM86.7142 24.5509C87.29 23.9737 87.5778 23.1869 87.5778 22.2426C87.5778 21.2984 87.29 20.5115 86.7142 19.9344C86.1386 19.3574 85.406 19.0426 84.5425 19.0426C83.6529 19.0426 82.9464 19.3311 82.3708 19.9344C81.7951 20.5115 81.5334 21.2984 81.5334 22.2426C81.5334 23.1869 81.8213 23.9737 82.3708 24.5509C82.9464 25.1279 83.6529 25.4426 84.5425 25.4426C85.406 25.4426 86.1386 25.1541 86.7142 24.5509ZM100.687 18.1509C101.472 18.9115 101.865 20.0131 101.865 21.5083V27.3574H99.4834V21.7968C99.4834 20.9049 99.274 20.223 98.8554 19.777C98.4367 19.3311 97.8349 19.0951 97.0499 19.0951C96.1602 19.0951 95.4799 19.3574 94.9566 19.882C94.4595 20.4065 94.1978 21.1672 94.1978 22.1639V27.3311H91.8166V17.1016H94.0931V18.4131C94.4856 17.941 94.9827 17.5737 95.5846 17.3377C96.1864 17.1016 96.8667 16.9705 97.5994 16.9705C98.8815 17.023 99.902 17.3901 100.687 18.1509ZM106.208 26.8065C105.371 26.3606 104.743 25.7311 104.272 24.9443C103.801 24.1574 103.565 23.2394 103.565 22.2426C103.565 21.2459 103.801 20.3279 104.272 19.541C104.743 18.7541 105.371 18.1246 106.208 17.6786C107.045 17.2327 107.961 16.9967 109.008 16.9967C110.054 16.9967 110.996 17.2327 111.807 17.6786C112.645 18.1246 113.273 18.7541 113.744 19.541C114.215 20.3279 114.45 21.2196 114.45 22.2426C114.45 23.2394 114.215 24.1574 113.744 24.9443C113.273 25.7311 112.645 26.3606 111.807 26.8065C110.97 27.2525 110.054 27.4885 109.008 27.4885C107.961 27.4885 107.045 27.2525 106.208 26.8065ZM111.18 24.5509C111.755 23.9737 112.043 23.1869 112.043 22.2426C112.043 21.2984 111.755 20.5115 111.18 19.9344C110.604 19.3574 109.871 19.0426 109.008 19.0426C108.118 19.0426 107.412 19.3311 106.836 19.9344C106.26 20.5115 105.999 21.2984 105.999 22.2426C105.999 23.1869 106.287 23.9737 106.836 24.5509C107.412 25.1279 108.118 25.4426 109.008 25.4426C109.871 25.4426 110.604 25.1541 111.18 24.5509ZM122.169 17.023V19.3049C121.96 19.2787 121.777 19.2525 121.62 19.2525C120.678 19.2525 119.971 19.5147 119.448 20.0656C118.925 20.6164 118.663 21.4032 118.663 22.4V27.3574H116.282V17.1279H118.558V18.623C119.213 17.5475 120.416 17.023 122.169 17.023ZM125.361 27.0951C124.393 26.8065 123.635 26.4131 123.085 25.9147L123.949 23.9738C124.498 24.4196 125.179 24.7606 125.964 25.0491C126.749 25.3115 127.56 25.4689 128.371 25.4689C129.365 25.4689 130.098 25.3115 130.595 24.9967C131.092 24.682 131.327 24.2623 131.327 23.7378C131.327 23.3442 131.196 23.0295 130.909 22.7935C130.647 22.5574 130.281 22.3475 129.863 22.2164C129.444 22.0852 128.868 21.9279 128.135 21.7442C127.115 21.5082 126.304 21.2721 125.65 21.0099C125.021 20.7738 124.472 20.3804 124.027 19.882C123.582 19.3574 123.347 18.6754 123.347 17.7836C123.347 17.0491 123.556 16.3673 123.949 15.7639C124.341 15.1606 124.943 14.6885 125.754 14.3212C126.565 13.9541 127.56 13.7968 128.738 13.7968C129.549 13.7968 130.359 13.9016 131.144 14.1115C131.929 14.3212 132.61 14.6099 133.185 15.0033L132.4 16.9443C131.825 16.6033 131.196 16.341 130.569 16.1574C129.941 15.9738 129.312 15.8951 128.711 15.8951C127.743 15.8951 127.01 16.0525 126.512 16.3935C126.016 16.7344 125.806 17.1541 125.806 17.7049C125.806 18.0984 125.938 18.4131 126.225 18.6491C126.486 18.8853 126.853 19.0951 127.271 19.2262C127.69 19.3574 128.266 19.5147 128.999 19.6984C129.992 19.9344 130.804 20.1705 131.433 20.4065C132.06 20.6426 132.61 21.0361 133.055 21.5344C133.499 22.0328 133.735 22.741 133.735 23.6065C133.735 24.341 133.525 25.023 133.132 25.6262C132.74 26.2295 132.113 26.7016 131.301 27.0689C130.49 27.4361 129.496 27.5935 128.319 27.5935C127.324 27.541 126.304 27.4099 125.361 27.0951ZM145.274 23.0033H137.268C137.398 23.7639 137.764 24.341 138.366 24.7869C138.967 25.2327 139.7 25.4426 140.564 25.4426C141.689 25.4426 142.605 25.0754 143.337 24.341L144.62 25.8099C144.149 26.3606 143.574 26.7804 142.893 27.0426C142.186 27.3311 141.401 27.4623 140.511 27.4623C139.386 27.4623 138.393 27.2262 137.555 26.7804C136.691 26.3344 136.038 25.7049 135.566 24.918C135.095 24.1311 134.86 23.2131 134.86 22.2164C134.86 21.2196 135.095 20.3279 135.54 19.5147C135.985 18.7279 136.613 18.0984 137.424 17.6525C138.235 17.2065 139.125 16.9705 140.145 16.9705C141.14 16.9705 142.029 17.1804 142.814 17.6262C143.599 18.0721 144.201 18.6754 144.646 19.4885C145.091 20.2754 145.3 21.2196 145.3 22.2426C145.3 22.4525 145.3 22.6885 145.274 23.0033ZM138.209 19.6196C137.686 20.0656 137.371 20.6689 137.241 21.4295H143.024C142.919 20.6951 142.605 20.0917 142.081 19.6196C141.559 19.1475 140.904 18.9377 140.145 18.9377C139.386 18.9377 138.732 19.1475 138.209 19.6196ZM154.406 18.0984C155.191 18.8328 155.61 19.9083 155.61 21.3509V27.3311H153.359V26.0984C153.071 26.5443 152.652 26.8853 152.104 27.1213C151.554 27.3574 150.9 27.4885 150.141 27.4885C149.382 27.4885 148.701 27.3574 148.126 27.0951C147.55 26.8328 147.105 26.4656 146.791 25.9935C146.477 25.5212 146.32 24.9967 146.32 24.4196C146.32 23.5016 146.661 22.7673 147.341 22.2164C148.021 21.6656 149.094 21.377 150.56 21.377H153.229V21.2196C153.229 20.5115 153.019 19.9606 152.6 19.5672C152.181 19.1737 151.527 18.9901 150.69 18.9901C150.115 18.9901 149.565 19.0689 148.99 19.2525C148.44 19.4361 147.969 19.6721 147.576 19.9869L146.635 18.2558C147.158 17.8361 147.812 17.5475 148.571 17.3115C149.33 17.1016 150.115 16.9967 150.952 16.9967C152.47 17.023 153.621 17.3639 154.406 18.0984ZM152.234 25.3378C152.705 25.0754 153.019 24.682 153.229 24.1574V22.977H150.769C149.382 22.977 148.701 23.423 148.701 24.341C148.701 24.7869 148.885 25.1279 149.225 25.3639C149.565 25.6262 150.036 25.7574 150.664 25.7574C151.24 25.7574 151.762 25.6 152.234 25.3378ZM163.983 17.023V19.3049C163.774 19.2787 163.59 19.2525 163.434 19.2525C162.491 19.2525 161.785 19.5147 161.261 20.0656C160.738 20.6164 160.476 21.4032 160.476 22.4V27.3574H158.095V17.1279H160.371V18.623C161.026 17.5475 162.23 17.023 163.983 17.023ZM167.28 26.8065C166.443 26.3606 165.787 25.7311 165.318 24.9443C164.846 24.1574 164.611 23.2394 164.611 22.2426C164.611 21.2459 164.846 20.3279 165.318 19.541C165.787 18.7541 166.443 18.1246 167.28 17.6786C168.118 17.2327 169.059 16.9967 170.131 16.9967C171.126 16.9967 172.016 17.2065 172.775 17.6C173.534 18.0196 174.109 18.5968 174.475 19.3574L172.644 20.4328C172.356 19.9606 171.99 19.5935 171.545 19.3574C171.1 19.1213 170.629 18.9901 170.105 18.9901C169.216 18.9901 168.484 19.2787 167.881 19.8557C167.306 20.4327 166.991 21.2196 166.991 22.1901C166.991 23.1606 167.28 23.9475 167.855 24.5246C168.431 25.1016 169.164 25.3901 170.079 25.3901C170.603 25.3901 171.074 25.259 171.519 25.023C171.964 24.7869 172.33 24.4459 172.617 23.9475L174.449 25.023C174.056 25.7836 173.481 26.3869 172.722 26.8065C171.964 27.2262 171.1 27.4361 170.105 27.4361C169.085 27.4885 168.118 27.2525 167.28 26.8065ZM184.941 18.1509C185.726 18.9115 186.119 20.0131 186.119 21.5083V27.3574H183.738V21.7968C183.738 20.9049 183.529 20.223 183.11 19.777C182.691 19.3311 182.09 19.0951 181.305 19.0951C180.415 19.0951 179.735 19.3574 179.211 19.882C178.714 20.4065 178.452 21.1672 178.452 22.1639V27.3311H176.071V13.141H178.452V18.3083C178.845 17.8885 179.343 17.5737 179.918 17.3377C180.494 17.1279 181.148 16.9967 181.854 16.9967C183.136 17.023 184.183 17.3901 184.941 18.1509Z" fill="#F73232"/>
<path d="M70.1512 32.8127H69.1831C69.1569 32.6291 69.0784 32.4717 68.9737 32.3406C68.8691 32.2095 68.7382 32.1046 68.6075 31.9996C68.4505 31.8947 68.2935 31.8422 68.1102 31.7899C67.9271 31.7374 67.744 31.7111 67.5346 31.7111C67.1684 31.7111 66.8281 31.7899 66.5404 31.9472C66.2525 32.1046 66.017 32.3406 65.86 32.6291C65.703 32.9177 65.5984 33.2849 65.5984 33.7309C65.5984 34.1767 65.6769 34.5439 65.86 34.8325C66.017 35.121 66.2525 35.357 66.5404 35.5144C66.8281 35.6717 67.1682 35.7505 67.5085 35.7505C67.7177 35.7505 67.901 35.7242 68.0841 35.6717C68.2672 35.6194 68.4242 35.5669 68.5812 35.462C68.7382 35.3832 68.843 35.2521 68.9476 35.121C69.0522 34.9899 69.1307 34.8325 69.1569 34.6751H70.1251C70.0727 34.9374 69.9681 35.1735 69.8372 35.4095C69.6802 35.6194 69.4971 35.8291 69.2616 35.9865C69.0261 36.1439 68.7645 36.2751 68.4766 36.3537C68.1887 36.4325 67.8486 36.4849 67.5085 36.4849C66.959 36.4849 66.4619 36.38 66.0431 36.1439C65.6245 35.9341 65.2844 35.5931 65.0227 35.1996C64.7872 34.78 64.6564 34.3079 64.6564 33.7309C64.6564 33.1537 64.7872 32.6554 65.0227 32.262C65.2844 31.8422 65.5984 31.5275 66.0431 31.3177C66.4619 31.1079 66.959 30.9767 67.5085 30.9767C67.8486 30.9767 68.1626 31.0291 68.4505 31.1079C68.7382 31.1865 68.9999 31.3177 69.2354 31.4751C69.4709 31.6325 69.6541 31.816 69.8111 32.0521C69.9942 32.262 70.0989 32.5242 70.1512 32.8127Z" fill="#F73232"/>
<path d="M73.2388 36.5114C72.7939 36.5114 72.4014 36.4326 72.0613 36.249C71.7211 36.0654 71.4595 35.8294 71.2763 35.5146C71.0931 35.1999 70.9885 34.8326 70.9885 34.413C70.9885 33.9933 71.0931 33.6261 71.2763 33.3114C71.4595 32.9966 71.7211 32.7605 72.0613 32.5769C72.4014 32.3933 72.7939 32.3146 73.2388 32.3146C73.6835 32.3146 74.076 32.3933 74.4163 32.5769C74.7564 32.7605 75.018 32.9966 75.2013 33.3114C75.3844 33.6261 75.489 33.9933 75.489 34.413C75.489 34.8326 75.3844 35.1999 75.2013 35.5146C75.018 35.8294 74.7564 36.0654 74.4163 36.249C74.076 36.4326 73.6835 36.5114 73.2388 36.5114ZM73.2388 35.8556C73.5266 35.8556 73.7621 35.8031 73.9714 35.672C74.1545 35.5409 74.3115 35.3835 74.39 35.1474C74.4948 34.9375 74.5209 34.7015 74.5209 34.4393C74.5209 34.1769 74.4685 33.9409 74.39 33.731C74.2854 33.5211 74.1545 33.3375 73.9714 33.2064C73.7883 33.0753 73.5528 32.9966 73.2388 32.9966C72.9509 32.9966 72.7154 33.049 72.5061 33.2064C72.3229 33.3375 72.1659 33.5211 72.0874 33.731C71.9828 33.9409 71.9566 34.1769 71.9566 34.4393C71.9566 34.7015 72.0089 34.9375 72.0874 35.1474C72.1921 35.3573 72.3229 35.5409 72.5061 35.672C72.7154 35.8031 72.9509 35.8556 73.2388 35.8556Z" fill="#F73232"/>
<path d="M78.5244 36.5114C78.0796 36.5114 77.6871 36.4326 77.3469 36.249C77.0067 36.0654 76.7451 35.8294 76.5619 35.5146C76.3788 35.1999 76.2741 34.8326 76.2741 34.413C76.2741 33.9933 76.3788 33.6261 76.5619 33.3114C76.7451 32.9966 77.0067 32.7605 77.3469 32.5769C77.6871 32.3933 78.0796 32.3146 78.5244 32.3146C78.9693 32.3146 79.3618 32.3933 79.7019 32.5769C80.042 32.7605 80.3036 32.9966 80.4869 33.3114C80.67 33.6261 80.7746 33.9933 80.7746 34.413C80.7746 34.8326 80.67 35.1999 80.4869 35.5146C80.3036 35.8294 80.042 36.0654 79.7019 36.249C79.3618 36.4326 78.9693 36.5114 78.5244 36.5114ZM78.5244 35.8556C78.8123 35.8556 79.0478 35.8031 79.257 35.672C79.4403 35.5409 79.5973 35.3835 79.6758 35.1474C79.7804 34.9375 79.8065 34.7015 79.8065 34.4393C79.8065 34.1769 79.7543 33.9409 79.6758 33.731C79.571 33.5211 79.4403 33.3375 79.257 33.2064C79.0739 33.0753 78.8384 32.9966 78.5244 32.9966C78.2366 32.9966 78.0011 33.049 77.7917 33.2064C77.6086 33.3375 77.4516 33.5211 77.3731 33.731C77.2684 33.9409 77.2423 34.1769 77.2423 34.4393C77.2423 34.7015 77.2946 34.9375 77.3731 35.1474C77.4777 35.3573 77.6086 35.5409 77.7917 35.672C78.0011 35.8031 78.2366 35.8556 78.5244 35.8556Z" fill="#F73232"/>
<path d="M85.4846 30.8983L85.8771 31.3966C85.7462 31.5015 85.5631 31.5803 85.3799 31.6328C85.1967 31.6851 84.9874 31.7114 84.752 31.7114C84.5165 31.7114 84.2548 31.7376 83.9408 31.7376C83.6006 31.7376 83.3129 31.8164 83.1035 31.9213C82.8941 32.0261 82.711 32.2098 82.5801 32.4459C82.4494 32.6819 82.3709 32.9441 82.3446 33.2851H82.397C82.554 33.0229 82.7634 32.8393 83.0511 32.7344C83.339 32.6033 83.6268 32.5508 83.9931 32.5508C84.3856 32.5508 84.7257 32.6294 85.0136 32.7868C85.3014 32.9441 85.5631 33.154 85.7201 33.4425C85.9033 33.7311 85.9817 34.072 85.9817 34.4918C85.9817 34.9114 85.9033 35.2786 85.7201 35.5671C85.5369 35.8819 85.2752 36.118 84.9612 36.2754C84.6211 36.4328 84.2547 36.5114 83.81 36.5114C83.3651 36.5114 82.9726 36.4328 82.6586 36.2491C82.3446 36.0655 82.083 35.8294 81.8999 35.4885C81.7166 35.1475 81.6381 34.7278 81.6381 34.2556V33.8623C81.6381 32.9441 81.8214 32.236 82.2139 31.7901C82.6064 31.3441 83.182 31.0819 83.967 31.0819C84.2286 31.0819 84.438 31.0819 84.6472 31.0819C84.8566 31.0819 85.0136 31.0819 85.1706 31.0556C85.2752 31.0294 85.3799 30.977 85.4846 30.8983ZM83.81 35.8556C84.0716 35.8556 84.281 35.8033 84.4902 35.6983C84.6735 35.5934 84.8305 35.436 84.9351 35.2261C85.0397 35.0164 85.0921 34.7803 85.0921 34.4918C85.0921 34.2294 85.0397 33.9934 84.9351 33.7835C84.8305 33.5999 84.6996 33.4425 84.4902 33.3376C84.3071 33.2328 84.0716 33.1803 83.81 33.1803C83.6267 33.1803 83.4436 33.2065 83.2866 33.259C83.1296 33.3114 82.9989 33.3901 82.8941 33.5213C82.7895 33.6261 82.711 33.7573 82.6325 33.9146C82.554 34.072 82.554 34.2556 82.5279 34.4655C82.5279 34.8851 82.6325 35.1999 82.868 35.4623C83.1035 35.7508 83.4175 35.8556 83.81 35.8556Z" fill="#F73232"/>
<path d="M87.0545 32.4194H87.9703V35.7767H89.6188V32.4194H90.5345V35.7767H92.183V32.4194H93.0987V36.4587H87.0806V32.4194H87.0545ZM93.8838 35.7506L93.8053 37.5866H92.8895V36.4325H92.2876V35.7506H93.8838Z" fill="#F73232"/>
<path d="M96.9454 36.5114C96.4744 36.5114 96.0819 36.4326 95.7416 36.249C95.4015 36.0654 95.1399 35.8294 94.9568 35.5146C94.7735 35.1999 94.6689 34.8326 94.6689 34.413C94.6689 33.9933 94.7735 33.6261 94.9568 33.3114C95.1399 32.9966 95.4015 32.7605 95.7155 32.5769C96.0556 32.3933 96.422 32.3146 96.8669 32.3146C97.1285 32.3146 97.3901 32.3409 97.6519 32.4195C97.9135 32.4983 98.1228 32.6031 98.3321 32.7605C98.5415 32.9179 98.6985 33.1278 98.8031 33.39C98.9078 33.6523 98.9863 33.9671 98.9863 34.3343V34.6228H95.1923V34.0458H98.0705C98.0705 33.8359 98.0181 33.6523 97.9135 33.4949C97.8088 33.3375 97.678 33.2064 97.4949 33.1278C97.3116 33.049 97.1024 32.9966 96.8669 32.9966C96.6051 32.9966 96.3696 33.049 96.1865 33.154C96.0034 33.2589 95.8464 33.39 95.7416 33.5736C95.637 33.7573 95.5848 33.9409 95.5848 34.1245V34.5966C95.5848 34.8589 95.637 35.0949 95.7416 35.2785C95.8464 35.4621 96.0034 35.6195 96.2126 35.6983C96.422 35.8031 96.6575 35.8556 96.9191 35.8556C97.1024 35.8556 97.2594 35.8294 97.3901 35.8031C97.5471 35.7506 97.6518 35.6983 97.7565 35.6195C97.8611 35.5409 97.9396 35.4359 97.992 35.3048L98.8816 35.4359C98.8031 35.6458 98.6723 35.8556 98.5153 36.013C98.3321 36.1704 98.0966 36.3015 97.835 36.4064C97.5995 36.4851 97.2855 36.5114 96.9454 36.5114Z" fill="#F73232"/>
<path d="M102.048 36.5114C101.577 36.5114 101.184 36.4326 100.844 36.2491C100.504 36.0655 100.268 35.8294 100.085 35.5146C99.9021 35.1999 99.8236 34.8326 99.8236 34.4393C99.8236 34.0195 99.9021 33.6786 100.085 33.3639C100.268 33.0491 100.53 32.813 100.844 32.6294C101.184 32.4458 101.577 32.3671 102.022 32.3671C102.388 32.3671 102.702 32.4195 102.99 32.5245C103.278 32.6294 103.513 32.7868 103.67 32.9966C103.827 33.2065 103.958 33.4425 103.984 33.7048H103.068C103.016 33.5213 102.911 33.3639 102.728 33.2065C102.545 33.0753 102.309 32.9966 102.022 32.9966C101.76 32.9966 101.524 33.0491 101.341 33.1803C101.158 33.3114 101.001 33.4688 100.896 33.6786C100.792 33.8884 100.739 34.1508 100.739 34.413C100.739 34.7015 100.792 34.9639 100.896 35.1736C101.001 35.3835 101.158 35.5409 101.341 35.672C101.524 35.7769 101.76 35.8556 102.022 35.8556C102.205 35.8556 102.362 35.8294 102.493 35.7769C102.623 35.7245 102.754 35.6458 102.859 35.5409C102.964 35.436 103.016 35.3048 103.068 35.1736H103.984C103.958 35.436 103.853 35.672 103.67 35.8819C103.513 36.0918 103.278 36.249 102.99 36.354C102.754 36.4589 102.44 36.5114 102.048 36.5114Z" fill="#F73232"/>
<path d="M104.769 33.0752V32.3934H108.799V33.0752H107.255V36.4326H106.339V33.0752H104.769Z" fill="#F73232"/>
<path d="M109.793 36.4326V32.3934H111.781C112.331 32.3934 112.75 32.4982 113.064 32.6819C113.378 32.8655 113.535 33.1277 113.535 33.4687C113.535 33.7049 113.456 33.8884 113.273 34.0196C113.09 34.1507 112.854 34.2556 112.566 34.3081C112.776 34.3344 112.985 34.3867 113.142 34.4655C113.325 34.5441 113.456 34.6752 113.561 34.8065C113.665 34.9639 113.718 35.1212 113.718 35.331C113.718 35.5409 113.665 35.7245 113.535 35.9081C113.404 36.0655 113.221 36.1966 112.959 36.3015C112.723 36.4065 112.409 36.4326 112.069 36.4326H109.793ZM110.656 34.0982H111.781C111.965 34.0982 112.095 34.072 112.226 34.0457C112.357 33.9934 112.436 33.9409 112.514 33.8622C112.593 33.7835 112.619 33.7049 112.619 33.5736C112.619 33.4162 112.54 33.2851 112.383 33.2065C112.226 33.1277 112.017 33.0752 111.755 33.0752H110.656V34.0982ZM110.656 35.777H112.069C112.305 35.777 112.488 35.7245 112.619 35.6457C112.75 35.5409 112.802 35.436 112.802 35.2786C112.802 35.095 112.75 34.9376 112.619 34.8326C112.488 34.7277 112.305 34.6752 112.069 34.6752H110.656V35.777Z" fill="#F73232"/>
<path d="M116.779 36.5114C116.334 36.5114 115.942 36.4326 115.602 36.249C115.261 36.0654 115 35.8294 114.817 35.5146C114.633 35.1999 114.529 34.8326 114.529 34.413C114.529 33.9933 114.633 33.6261 114.817 33.3114C115 32.9966 115.261 32.7605 115.602 32.5769C115.942 32.3933 116.334 32.3146 116.779 32.3146C117.224 32.3146 117.616 32.3933 117.957 32.5769C118.297 32.7605 118.558 32.9966 118.741 33.3114C118.925 33.6261 119.029 33.9933 119.029 34.413C119.029 34.8326 118.925 35.1999 118.741 35.5146C118.558 35.8294 118.297 36.0654 117.957 36.249C117.616 36.4326 117.224 36.5114 116.779 36.5114ZM116.779 35.8556C117.067 35.8556 117.302 35.8031 117.512 35.672C117.695 35.5409 117.852 35.3835 117.93 35.1474C118.035 34.9375 118.061 34.7015 118.061 34.4393C118.061 34.1769 118.009 33.9409 117.93 33.731C117.826 33.5211 117.695 33.3375 117.512 33.2064C117.329 33.0753 117.093 32.9966 116.779 32.9966C116.491 32.9966 116.256 33.049 116.046 33.2064C115.863 33.3375 115.706 33.5211 115.628 33.731C115.523 33.9409 115.497 34.1769 115.497 34.4393C115.497 34.7015 115.549 34.9375 115.628 35.1474C115.732 35.3573 115.863 35.5409 116.046 35.672C116.23 35.8031 116.465 35.8556 116.779 35.8556Z" fill="#F73232"/>
<path d="M121.908 37.6129V35.7767H122.3C122.405 35.6981 122.483 35.6194 122.562 35.5145C122.64 35.4096 122.693 35.2785 122.745 35.1211C122.797 34.9637 122.823 34.8064 122.876 34.5965C122.928 34.3866 122.928 34.1769 122.954 33.9145L123.111 32.4194H126.356V35.7767H127.089V37.6129H126.173V36.4587H122.85V37.6129H121.908ZM123.294 35.7506H125.414V33.0751H123.922L123.818 33.9145C123.765 34.3342 123.713 34.7014 123.635 35.0161C123.582 35.3309 123.451 35.567 123.294 35.7506Z" fill="#F73232"/>
<path d="M129.992 36.5114C129.547 36.5114 129.155 36.4326 128.815 36.249C128.475 36.0654 128.214 35.8294 128.03 35.5146C127.847 35.1999 127.742 34.8326 127.742 34.413C127.742 33.9933 127.847 33.6261 128.03 33.3114C128.214 32.9966 128.475 32.7605 128.815 32.5769C129.155 32.3933 129.547 32.3146 129.992 32.3146C130.437 32.3146 130.83 32.3933 131.17 32.5769C131.51 32.7605 131.772 32.9966 131.955 33.3114C132.139 33.6261 132.244 33.9933 132.244 34.413C132.244 34.8326 132.139 35.1999 131.955 35.5146C131.772 35.8294 131.51 36.0654 131.17 36.249C130.83 36.4326 130.437 36.5114 129.992 36.5114ZM129.992 35.8556C130.281 35.8556 130.516 35.8031 130.725 35.672C130.909 35.5409 131.066 35.3835 131.144 35.1474C131.249 34.9375 131.275 34.7015 131.275 34.4393C131.275 34.1769 131.222 33.9409 131.144 33.731C131.04 33.5211 130.909 33.3375 130.725 33.2064C130.542 33.0753 130.307 32.9966 129.992 32.9966C129.705 32.9966 129.47 33.049 129.26 33.2064C129.077 33.3375 128.92 33.5211 128.841 33.731C128.737 33.9409 128.711 34.1769 128.711 34.4393C128.711 34.7015 128.762 34.9375 128.841 35.1474C128.946 35.3573 129.077 35.5409 129.26 35.672C129.47 35.8031 129.705 35.8556 129.992 35.8556Z" fill="#F73232"/>
<path d="M134.18 32.4194V36.4587H133.264V32.4194H134.18ZM136.509 34.0981V34.7801H133.918V34.0981H136.509ZM137.163 32.4194V36.4587H136.246V32.4194H137.163Z" fill="#F73232"/>
<path d="M140.434 36.5114C139.989 36.5114 139.596 36.4326 139.256 36.249C138.916 36.0654 138.654 35.8294 138.471 35.5146C138.287 35.1999 138.182 34.8326 138.182 34.413C138.182 33.9933 138.287 33.6261 138.471 33.3114C138.654 32.9966 138.916 32.7605 139.256 32.5769C139.596 32.3933 139.989 32.3146 140.434 32.3146C140.877 32.3146 141.27 32.3933 141.611 32.5769C141.951 32.7605 142.212 32.9966 142.396 33.3114C142.579 33.6261 142.684 33.9933 142.684 34.413C142.684 34.8326 142.579 35.1999 142.396 35.5146C142.212 35.8294 141.951 36.0654 141.611 36.249C141.27 36.4326 140.877 36.5114 140.434 36.5114ZM140.434 35.8556C140.721 35.8556 140.956 35.8031 141.166 35.672C141.349 35.5409 141.506 35.3835 141.585 35.1474C141.689 34.9375 141.715 34.7015 141.715 34.4393C141.715 34.1769 141.662 33.9409 141.585 33.731C141.48 33.5211 141.349 33.3375 141.166 33.2064C140.982 33.0753 140.747 32.9966 140.434 32.9966C140.145 32.9966 139.91 33.049 139.7 33.2064C139.518 33.3375 139.36 33.5211 139.283 33.731C139.178 33.9409 139.151 34.1769 139.151 34.4393C139.151 34.7015 139.204 34.9375 139.283 35.1474C139.386 35.3573 139.518 35.5409 139.7 35.672C139.884 35.8031 140.145 35.8556 140.434 35.8556Z" fill="#F73232"/>
<path d="M143.704 37.954V32.4195H144.62V33.0753H144.699C144.75 32.9966 144.829 32.8918 144.934 32.7868C145.039 32.6819 145.169 32.5769 145.352 32.4983C145.535 32.4195 145.771 32.3671 146.059 32.3671C146.451 32.3671 146.791 32.4458 147.079 32.6031C147.394 32.7605 147.629 32.9966 147.786 33.3114C147.969 33.6261 148.047 33.9934 148.047 34.4393C148.047 34.8851 147.969 35.2524 147.786 35.5671C147.602 35.8819 147.367 36.1179 147.079 36.2753C146.791 36.4326 146.425 36.5376 146.059 36.5376C145.771 36.5376 145.535 36.4851 145.352 36.4065C145.169 36.3278 145.039 36.2229 144.934 36.1179C144.829 36.013 144.75 35.9081 144.699 35.8294H144.646V37.954H143.704ZM144.62 34.413C144.62 34.7015 144.672 34.9376 144.776 35.1474C144.881 35.3573 145.012 35.5146 145.195 35.6458C145.379 35.7769 145.614 35.8294 145.876 35.8294C146.164 35.8294 146.372 35.7769 146.582 35.6458C146.765 35.5146 146.922 35.3573 147.001 35.1474C147.105 34.9376 147.157 34.7015 147.157 34.413C147.157 34.1508 147.105 33.9146 147.027 33.7048C146.922 33.495 146.791 33.3376 146.609 33.2065C146.425 33.0753 146.19 33.0229 145.901 33.0229C145.64 33.0229 145.405 33.0753 145.221 33.2065C145.039 33.3114 144.907 33.495 144.802 33.7048C144.646 33.8884 144.62 34.1508 144.62 34.413Z" fill="#F73232"/>
<path d="M151.135 36.5114C150.69 36.5114 150.298 36.4326 149.958 36.249C149.618 36.0654 149.356 35.8294 149.173 35.5146C148.99 35.1999 148.885 34.8326 148.885 34.413C148.885 33.9933 148.99 33.6261 149.173 33.3114C149.356 32.9966 149.618 32.7605 149.958 32.5769C150.298 32.3933 150.69 32.3146 151.135 32.3146C151.58 32.3146 151.973 32.3933 152.313 32.5769C152.653 32.7605 152.915 32.9966 153.098 33.3114C153.281 33.6261 153.385 33.9933 153.385 34.413C153.385 34.8326 153.281 35.1999 153.098 35.5146C152.915 35.8294 152.653 36.0654 152.313 36.249C151.973 36.4326 151.58 36.5114 151.135 36.5114ZM151.135 35.8556C151.423 35.8556 151.659 35.8031 151.868 35.672C152.051 35.5409 152.208 35.3835 152.286 35.1474C152.391 34.9375 152.418 34.7015 152.418 34.4393C152.418 34.1769 152.365 33.9409 152.286 33.731C152.181 33.5211 152.051 33.3375 151.868 33.2064C151.685 33.0753 151.449 32.9966 151.135 32.9966C150.848 32.9966 150.611 33.049 150.403 33.2064C150.219 33.3375 150.063 33.5211 149.984 33.731C149.879 33.9409 149.853 34.1769 149.853 34.4393C149.853 34.7015 149.905 34.9375 149.984 35.1474C150.089 35.3573 150.219 35.5409 150.403 35.672C150.586 35.8031 150.848 35.8556 151.135 35.8556Z" fill="#F73232"/>
<path d="M154.406 36.4326V32.3934H156.395C156.944 32.3934 157.362 32.4982 157.676 32.6819C157.99 32.8655 158.147 33.1277 158.147 33.4687C158.147 33.7049 158.069 33.8884 157.886 34.0196C157.702 34.1507 157.468 34.2556 157.18 34.3081C157.389 34.3344 157.598 34.3867 157.755 34.4655C157.939 34.5441 158.069 34.6752 158.174 34.8065C158.279 34.9639 158.331 35.1212 158.331 35.331C158.331 35.5409 158.279 35.7245 158.147 35.9081C158.016 36.0655 157.834 36.1966 157.572 36.3015C157.336 36.4065 157.022 36.4326 156.682 36.4326H154.406ZM155.269 34.0982H156.395C156.577 34.0982 156.709 34.072 156.839 34.0457C156.97 33.9934 157.049 33.9409 157.128 33.8622C157.205 33.7835 157.231 33.7049 157.231 33.5736C157.231 33.4162 157.154 33.2851 156.996 33.2065C156.839 33.1277 156.63 33.0752 156.369 33.0752H155.269V34.0982ZM155.269 35.777H156.682C156.917 35.777 157.101 35.7245 157.231 35.6457C157.363 35.5409 157.415 35.436 157.415 35.2786C157.415 35.095 157.363 34.9376 157.231 34.8326C157.101 34.7277 156.917 34.6752 156.682 34.6752H155.269V35.777Z" fill="#F73232"/>
<path d="M161.706 36.4326V32.3934H162.622V34.072H163.066L164.636 32.3934H165.789L163.93 34.3605L165.789 36.4326H164.636L163.197 34.8326H162.649V36.4326H161.706Z" fill="#F73232"/>
<path d="M166.574 37.954V32.4195H167.489V33.0753H167.567C167.62 32.9966 167.699 32.8918 167.802 32.7868C167.907 32.6819 168.039 32.5769 168.221 32.4983C168.405 32.4195 168.64 32.3671 168.929 32.3671C169.32 32.3671 169.661 32.4458 169.949 32.6031C170.262 32.7605 170.497 32.9966 170.655 33.3114C170.839 33.6261 170.916 33.9934 170.916 34.4393C170.916 34.8851 170.839 35.2524 170.655 35.5671C170.472 35.8819 170.236 36.1179 169.949 36.2753C169.661 36.4326 169.295 36.5376 168.929 36.5376C168.64 36.5376 168.405 36.4851 168.221 36.4065C168.039 36.3278 167.907 36.2229 167.802 36.1179C167.699 36.013 167.62 35.9081 167.567 35.8294H167.515V37.954H166.574ZM167.489 34.413C167.489 34.7015 167.541 34.9376 167.646 35.1474C167.751 35.3573 167.881 35.5146 168.065 35.6458C168.247 35.7769 168.484 35.8294 168.745 35.8294C169.032 35.8294 169.242 35.7769 169.451 35.6458C169.635 35.5146 169.791 35.3573 169.87 35.1474C169.975 34.9376 170.027 34.7015 170.027 34.413C170.027 34.1508 169.975 33.9146 169.896 33.7048C169.791 33.495 169.661 33.3376 169.477 33.2065C169.295 33.0753 169.059 33.0229 168.771 33.0229C168.51 33.0229 168.274 33.0753 168.091 33.2065C167.907 33.3114 167.776 33.495 167.672 33.7048C167.515 33.8884 167.489 34.1508 167.489 34.413Z" fill="#F73232"/>
<path d="M174.005 36.5114C173.56 36.5114 173.167 36.4326 172.827 36.249C172.486 36.0654 172.225 35.8294 172.042 35.5146C171.859 35.1999 171.754 34.8326 171.754 34.413C171.754 33.9933 171.859 33.6261 172.042 33.3114C172.225 32.9966 172.486 32.7605 172.827 32.5769C173.167 32.3933 173.56 32.3146 174.005 32.3146C174.449 32.3146 174.841 32.3933 175.182 32.5769C175.522 32.7605 175.784 32.9966 175.967 33.3114C176.15 33.6261 176.255 33.9933 176.255 34.413C176.255 34.8326 176.15 35.1999 175.967 35.5146C175.784 35.8294 175.522 36.0654 175.182 36.249C174.841 36.4326 174.449 36.5114 174.005 36.5114ZM174.005 35.8556C174.292 35.8556 174.527 35.8031 174.737 35.672C174.92 35.5409 175.077 35.3835 175.156 35.1474C175.26 34.9375 175.286 34.7015 175.286 34.4393C175.286 34.1769 175.234 33.9409 175.156 33.731C175.051 33.5211 174.92 33.3375 174.737 33.2064C174.554 33.0753 174.319 32.9966 174.005 32.9966C173.716 32.9966 173.481 33.049 173.271 33.2064C173.089 33.3375 172.931 33.5211 172.854 33.731C172.749 33.9409 172.722 34.1769 172.722 34.4393C172.722 34.7015 172.775 34.9375 172.854 35.1474C172.957 35.3573 173.089 35.5409 173.271 35.672C173.455 35.8031 173.716 35.8556 174.005 35.8556Z" fill="#F73232"/>
<path d="M177.275 36.4326V32.3934H179.264C179.814 32.3934 180.231 32.4982 180.546 32.6819C180.86 32.8655 181.016 33.1277 181.016 33.4687C181.016 33.7049 180.939 33.8884 180.755 34.0196C180.573 34.1507 180.336 34.2556 180.049 34.3081C180.258 34.3344 180.468 34.3867 180.624 34.4655C180.808 34.5441 180.939 34.6752 181.043 34.8065C181.148 34.9639 181.2 35.1212 181.2 35.331C181.2 35.5409 181.148 35.7245 181.016 35.9081C180.886 36.0655 180.703 36.1966 180.441 36.3015C180.206 36.4065 179.891 36.4326 179.551 36.4326H177.275ZM178.139 34.0982H179.264C179.446 34.0982 179.578 34.072 179.709 34.0457C179.839 33.9934 179.918 33.9409 179.996 33.8622C180.075 33.7835 180.101 33.7049 180.101 33.5736C180.101 33.4162 180.023 33.2851 179.865 33.2065C179.709 33.1277 179.499 33.0752 179.238 33.0752H178.139V34.0982ZM178.139 35.777H179.551C179.788 35.777 179.97 35.7245 180.101 35.6457C180.231 35.5409 180.284 35.436 180.284 35.2786C180.284 35.095 180.231 34.9376 180.101 34.8326C179.97 34.7277 179.788 34.6752 179.551 34.6752H178.139V35.777Z" fill="#F73232"/>
<path d="M183.163 35.331L185.256 32.3934H186.25V36.4326H185.334V33.495L183.241 36.4326H182.22V32.3934H183.136V35.331H183.163Z" fill="#F73232"/>
</g>
</g>
<defs>
<clipPath id="clip0_111_64">
<rect width="186.25" height="40" fill="white"/>
</clipPath>
</defs>
</svg>
