<svg  viewBox="0 0 20 16" fill="none" xmlns="http://www.w3.org/2000/svg">
<path d="M1.18633 6.96805L12.7127 2.21897C13.8505 1.72428 17.7091 0.141253 17.7091 0.141253C17.7091 0.141253 19.49 -0.55132 19.3416 1.13064C19.2922 1.82322 18.8964 4.24722 18.5007 6.86911L17.2639 14.6358C17.2639 14.6358 17.165 15.7736 16.324 15.9715C15.483 16.1694 14.0979 15.2789 13.8505 15.0811C13.6526 14.9326 10.1403 12.7065 8.8541 11.6182C8.50782 11.3214 8.11206 10.7277 8.90357 10.0352C10.6845 8.40267 12.8117 6.37441 14.0979 5.08821C14.6915 4.49457 15.2851 3.10942 12.8117 4.79139L5.83646 9.49099C5.83646 9.49099 5.04495 9.98569 3.56086 9.54046C2.07678 9.09524 0.345344 8.5016 0.345344 8.5016C0.345344 8.5016 -0.841925 7.75956 1.18633 6.96805Z" fill="#32AADD"/>
</svg>
