<svg width="16" height="16" viewBox="0 0 16 16" fill="none" xmlns="http://www.w3.org/2000/svg">
<g clip-path="url(#clip0_191_2285)">
<path d="M4.00016 6.00002H3.00016C2.55814 6.00002 2.13421 5.82443 1.82165 5.51186C1.50909 5.1993 1.3335 4.77538 1.3335 4.33335C1.3335 3.89133 1.50909 3.4674 1.82165 3.15484C2.13421 2.84228 2.55814 2.66669 3.00016 2.66669H4.00016" stroke="#F73232" stroke-linecap="round" stroke-linejoin="round"/>
<path d="M12 6.00002H13C13.442 6.00002 13.866 5.82443 14.1785 5.51186C14.4911 5.1993 14.6667 4.77538 14.6667 4.33335C14.6667 3.89133 14.4911 3.4674 14.1785 3.15484C13.866 2.84228 13.442 2.66669 13 2.66669H12" stroke="#F73232" stroke-linecap="round" stroke-linejoin="round"/>
<path d="M2.6665 14.6667H13.3332" stroke="#F73232" stroke-linecap="round" stroke-linejoin="round"/>
<path d="M6.6665 9.77332V11.3333C6.6665 11.7 6.35317 11.9866 6.01984 12.14C5.23317 12.5 4.6665 13.4933 4.6665 14.6666" stroke="#F73232" stroke-linecap="round" stroke-linejoin="round"/>
<path d="M9.3335 9.77332V11.3333C9.3335 11.7 9.64683 11.9866 9.98016 12.14C10.7668 12.5 11.3335 13.4933 11.3335 14.6666" stroke="#F73232" stroke-linecap="round" stroke-linejoin="round"/>
<path d="M12 1.33331H4V5.99998C4 7.06085 4.42143 8.07826 5.17157 8.82841C5.92172 9.57855 6.93913 9.99998 8 9.99998C9.06087 9.99998 10.0783 9.57855 10.8284 8.82841C11.5786 8.07826 12 7.06085 12 5.99998V1.33331Z" stroke="#F73232" stroke-linecap="round" stroke-linejoin="round"/>
</g>
<defs>
<clipPath id="clip0_191_2285">
<rect width="16" height="16" fill="white"/>
</clipPath>
</defs>
</svg>
